<?xml version="1.0" encoding="utf-8" standalone="no"?>
<!DOCTYPE svg PUBLIC "-//W3C//DTD SVG 1.1//EN"
  "http://www.w3.org/Graphics/SVG/1.1/DTD/svg11.dtd">
<svg xmlns:xlink="http://www.w3.org/1999/xlink" width="460.8pt" height="345.6pt" viewBox="0 0 460.8 345.6" xmlns="http://www.w3.org/2000/svg" version="1.1">
 <metadata>
  <rdf:RDF xmlns:dc="http://purl.org/dc/elements/1.1/" xmlns:cc="http://creativecommons.org/ns#" xmlns:rdf="http://www.w3.org/1999/02/22-rdf-syntax-ns#">
   <cc:Work>
    <dc:type rdf:resource="http://purl.org/dc/dcmitype/StillImage"/>
    <dc:date>2024-05-20T22:20:33.202021</dc:date>
    <dc:format>image/svg+xml</dc:format>
    <dc:creator>
     <cc:Agent>
      <dc:title>Matplotlib v3.8.4, https://matplotlib.org/</dc:title>
     </cc:Agent>
    </dc:creator>
   </cc:Work>
  </rdf:RDF>
 </metadata>
 <defs>
  <style type="text/css">*{stroke-linejoin: round; stroke-linecap: butt}</style>
 </defs>
 <g id="figure_1">
  <g id="patch_1">
   <path d="M 0 345.6 
L 460.8 345.6 
L 460.8 0 
L 0 0 
z
" style="fill: #ffffff"/>
  </g>
  <g id="axes_1">
   <g id="patch_2">
    <path d="M 57.6 307.584 
L 414.72 307.584 
L 414.72 41.472 
L 57.6 41.472 
z
" style="fill: #ffffff"/>
   </g>
   <g id="matplotlib.axis_1">
    <g id="xtick_1">
     <g id="line2d_1">
      <defs>
       <path id="mbdc00b5967" d="M 0 0 
L 0 3.5 
" style="stroke: #000000; stroke-width: 0.8"/>
      </defs>
      <g>
       <use xlink:href="#mbdc00b5967" x="73.832727" y="307.584" style="stroke: #000000; stroke-width: 0.8"/>
      </g>
     </g>
     <g id="text_1">
      <!-- 0.0 -->
      <g transform="translate(65.881165 322.182437) scale(0.1 -0.1)">
       <defs>
        <path id="DejaVuSans-30" d="M 2034 4250 
Q 1547 4250 1301 3770 
Q 1056 3291 1056 2328 
Q 1056 1369 1301 889 
Q 1547 409 2034 409 
Q 2525 409 2770 889 
Q 3016 1369 3016 2328 
Q 3016 3291 2770 3770 
Q 2525 4250 2034 4250 
z
M 2034 4750 
Q 2819 4750 3233 4129 
Q 3647 3509 3647 2328 
Q 3647 1150 3233 529 
Q 2819 -91 2034 -91 
Q 1250 -91 836 529 
Q 422 1150 422 2328 
Q 422 3509 836 4129 
Q 1250 4750 2034 4750 
z
" transform="scale(0.015625)"/>
        <path id="DejaVuSans-2e" d="M 684 794 
L 1344 794 
L 1344 0 
L 684 0 
L 684 794 
z
" transform="scale(0.015625)"/>
       </defs>
       <use xlink:href="#DejaVuSans-30"/>
       <use xlink:href="#DejaVuSans-2e" x="63.623047"/>
       <use xlink:href="#DejaVuSans-30" x="95.410156"/>
      </g>
     </g>
    </g>
    <g id="xtick_2">
     <g id="line2d_2">
      <g>
       <use xlink:href="#mbdc00b5967" x="138.763636" y="307.584" style="stroke: #000000; stroke-width: 0.8"/>
      </g>
     </g>
     <g id="text_2">
      <!-- 0.2 -->
      <g transform="translate(130.812074 322.182437) scale(0.1 -0.1)">
       <defs>
        <path id="DejaVuSans-32" d="M 1228 531 
L 3431 531 
L 3431 0 
L 469 0 
L 469 531 
Q 828 903 1448 1529 
Q 2069 2156 2228 2338 
Q 2531 2678 2651 2914 
Q 2772 3150 2772 3378 
Q 2772 3750 2511 3984 
Q 2250 4219 1831 4219 
Q 1534 4219 1204 4116 
Q 875 4013 500 3803 
L 500 4441 
Q 881 4594 1212 4672 
Q 1544 4750 1819 4750 
Q 2544 4750 2975 4387 
Q 3406 4025 3406 3419 
Q 3406 3131 3298 2873 
Q 3191 2616 2906 2266 
Q 2828 2175 2409 1742 
Q 1991 1309 1228 531 
z
" transform="scale(0.015625)"/>
       </defs>
       <use xlink:href="#DejaVuSans-30"/>
       <use xlink:href="#DejaVuSans-2e" x="63.623047"/>
       <use xlink:href="#DejaVuSans-32" x="95.410156"/>
      </g>
     </g>
    </g>
    <g id="xtick_3">
     <g id="line2d_3">
      <g>
       <use xlink:href="#mbdc00b5967" x="203.694545" y="307.584" style="stroke: #000000; stroke-width: 0.8"/>
      </g>
     </g>
     <g id="text_3">
      <!-- 0.4 -->
      <g transform="translate(195.742983 322.182437) scale(0.1 -0.1)">
       <defs>
        <path id="DejaVuSans-34" d="M 2419 4116 
L 825 1625 
L 2419 1625 
L 2419 4116 
z
M 2253 4666 
L 3047 4666 
L 3047 1625 
L 3713 1625 
L 3713 1100 
L 3047 1100 
L 3047 0 
L 2419 0 
L 2419 1100 
L 313 1100 
L 313 1709 
L 2253 4666 
z
" transform="scale(0.015625)"/>
       </defs>
       <use xlink:href="#DejaVuSans-30"/>
       <use xlink:href="#DejaVuSans-2e" x="63.623047"/>
       <use xlink:href="#DejaVuSans-34" x="95.410156"/>
      </g>
     </g>
    </g>
    <g id="xtick_4">
     <g id="line2d_4">
      <g>
       <use xlink:href="#mbdc00b5967" x="268.625455" y="307.584" style="stroke: #000000; stroke-width: 0.8"/>
      </g>
     </g>
     <g id="text_4">
      <!-- 0.6 -->
      <g transform="translate(260.673892 322.182437) scale(0.1 -0.1)">
       <defs>
        <path id="DejaVuSans-36" d="M 2113 2584 
Q 1688 2584 1439 2293 
Q 1191 2003 1191 1497 
Q 1191 994 1439 701 
Q 1688 409 2113 409 
Q 2538 409 2786 701 
Q 3034 994 3034 1497 
Q 3034 2003 2786 2293 
Q 2538 2584 2113 2584 
z
M 3366 4563 
L 3366 3988 
Q 3128 4100 2886 4159 
Q 2644 4219 2406 4219 
Q 1781 4219 1451 3797 
Q 1122 3375 1075 2522 
Q 1259 2794 1537 2939 
Q 1816 3084 2150 3084 
Q 2853 3084 3261 2657 
Q 3669 2231 3669 1497 
Q 3669 778 3244 343 
Q 2819 -91 2113 -91 
Q 1303 -91 875 529 
Q 447 1150 447 2328 
Q 447 3434 972 4092 
Q 1497 4750 2381 4750 
Q 2619 4750 2861 4703 
Q 3103 4656 3366 4563 
z
" transform="scale(0.015625)"/>
       </defs>
       <use xlink:href="#DejaVuSans-30"/>
       <use xlink:href="#DejaVuSans-2e" x="63.623047"/>
       <use xlink:href="#DejaVuSans-36" x="95.410156"/>
      </g>
     </g>
    </g>
    <g id="xtick_5">
     <g id="line2d_5">
      <g>
       <use xlink:href="#mbdc00b5967" x="333.556364" y="307.584" style="stroke: #000000; stroke-width: 0.8"/>
      </g>
     </g>
     <g id="text_5">
      <!-- 0.8 -->
      <g transform="translate(325.604801 322.182437) scale(0.1 -0.1)">
       <defs>
        <path id="DejaVuSans-38" d="M 2034 2216 
Q 1584 2216 1326 1975 
Q 1069 1734 1069 1313 
Q 1069 891 1326 650 
Q 1584 409 2034 409 
Q 2484 409 2743 651 
Q 3003 894 3003 1313 
Q 3003 1734 2745 1975 
Q 2488 2216 2034 2216 
z
M 1403 2484 
Q 997 2584 770 2862 
Q 544 3141 544 3541 
Q 544 4100 942 4425 
Q 1341 4750 2034 4750 
Q 2731 4750 3128 4425 
Q 3525 4100 3525 3541 
Q 3525 3141 3298 2862 
Q 3072 2584 2669 2484 
Q 3125 2378 3379 2068 
Q 3634 1759 3634 1313 
Q 3634 634 3220 271 
Q 2806 -91 2034 -91 
Q 1263 -91 848 271 
Q 434 634 434 1313 
Q 434 1759 690 2068 
Q 947 2378 1403 2484 
z
M 1172 3481 
Q 1172 3119 1398 2916 
Q 1625 2713 2034 2713 
Q 2441 2713 2670 2916 
Q 2900 3119 2900 3481 
Q 2900 3844 2670 4047 
Q 2441 4250 2034 4250 
Q 1625 4250 1398 4047 
Q 1172 3844 1172 3481 
z
" transform="scale(0.015625)"/>
       </defs>
       <use xlink:href="#DejaVuSans-30"/>
       <use xlink:href="#DejaVuSans-2e" x="63.623047"/>
       <use xlink:href="#DejaVuSans-38" x="95.410156"/>
      </g>
     </g>
    </g>
    <g id="xtick_6">
     <g id="line2d_6">
      <g>
       <use xlink:href="#mbdc00b5967" x="398.487273" y="307.584" style="stroke: #000000; stroke-width: 0.8"/>
      </g>
     </g>
     <g id="text_6">
      <!-- 1.0 -->
      <g transform="translate(390.53571 322.182437) scale(0.1 -0.1)">
       <defs>
        <path id="DejaVuSans-31" d="M 794 531 
L 1825 531 
L 1825 4091 
L 703 3866 
L 703 4441 
L 1819 4666 
L 2450 4666 
L 2450 531 
L 3481 531 
L 3481 0 
L 794 0 
L 794 531 
z
" transform="scale(0.015625)"/>
       </defs>
       <use xlink:href="#DejaVuSans-31"/>
       <use xlink:href="#DejaVuSans-2e" x="63.623047"/>
       <use xlink:href="#DejaVuSans-30" x="95.410156"/>
      </g>
     </g>
    </g>
    <g id="text_7">
     <!-- Recall -->
     <g transform="translate(221.242812 335.860562) scale(0.1 -0.1)">
      <defs>
       <path id="DejaVuSans-52" d="M 2841 2188 
Q 3044 2119 3236 1894 
Q 3428 1669 3622 1275 
L 4263 0 
L 3584 0 
L 2988 1197 
Q 2756 1666 2539 1819 
Q 2322 1972 1947 1972 
L 1259 1972 
L 1259 0 
L 628 0 
L 628 4666 
L 2053 4666 
Q 2853 4666 3247 4331 
Q 3641 3997 3641 3322 
Q 3641 2881 3436 2590 
Q 3231 2300 2841 2188 
z
M 1259 4147 
L 1259 2491 
L 2053 2491 
Q 2509 2491 2742 2702 
Q 2975 2913 2975 3322 
Q 2975 3731 2742 3939 
Q 2509 4147 2053 4147 
L 1259 4147 
z
" transform="scale(0.015625)"/>
       <path id="DejaVuSans-65" d="M 3597 1894 
L 3597 1613 
L 953 1613 
Q 991 1019 1311 708 
Q 1631 397 2203 397 
Q 2534 397 2845 478 
Q 3156 559 3463 722 
L 3463 178 
Q 3153 47 2828 -22 
Q 2503 -91 2169 -91 
Q 1331 -91 842 396 
Q 353 884 353 1716 
Q 353 2575 817 3079 
Q 1281 3584 2069 3584 
Q 2775 3584 3186 3129 
Q 3597 2675 3597 1894 
z
M 3022 2063 
Q 3016 2534 2758 2815 
Q 2500 3097 2075 3097 
Q 1594 3097 1305 2825 
Q 1016 2553 972 2059 
L 3022 2063 
z
" transform="scale(0.015625)"/>
       <path id="DejaVuSans-63" d="M 3122 3366 
L 3122 2828 
Q 2878 2963 2633 3030 
Q 2388 3097 2138 3097 
Q 1578 3097 1268 2742 
Q 959 2388 959 1747 
Q 959 1106 1268 751 
Q 1578 397 2138 397 
Q 2388 397 2633 464 
Q 2878 531 3122 666 
L 3122 134 
Q 2881 22 2623 -34 
Q 2366 -91 2075 -91 
Q 1284 -91 818 406 
Q 353 903 353 1747 
Q 353 2603 823 3093 
Q 1294 3584 2113 3584 
Q 2378 3584 2631 3529 
Q 2884 3475 3122 3366 
z
" transform="scale(0.015625)"/>
       <path id="DejaVuSans-61" d="M 2194 1759 
Q 1497 1759 1228 1600 
Q 959 1441 959 1056 
Q 959 750 1161 570 
Q 1363 391 1709 391 
Q 2188 391 2477 730 
Q 2766 1069 2766 1631 
L 2766 1759 
L 2194 1759 
z
M 3341 1997 
L 3341 0 
L 2766 0 
L 2766 531 
Q 2569 213 2275 61 
Q 1981 -91 1556 -91 
Q 1019 -91 701 211 
Q 384 513 384 1019 
Q 384 1609 779 1909 
Q 1175 2209 1959 2209 
L 2766 2209 
L 2766 2266 
Q 2766 2663 2505 2880 
Q 2244 3097 1772 3097 
Q 1472 3097 1187 3025 
Q 903 2953 641 2809 
L 641 3341 
Q 956 3463 1253 3523 
Q 1550 3584 1831 3584 
Q 2591 3584 2966 3190 
Q 3341 2797 3341 1997 
z
" transform="scale(0.015625)"/>
       <path id="DejaVuSans-6c" d="M 603 4863 
L 1178 4863 
L 1178 0 
L 603 0 
L 603 4863 
z
" transform="scale(0.015625)"/>
      </defs>
      <use xlink:href="#DejaVuSans-52"/>
      <use xlink:href="#DejaVuSans-65" x="64.982422"/>
      <use xlink:href="#DejaVuSans-63" x="126.505859"/>
      <use xlink:href="#DejaVuSans-61" x="181.486328"/>
      <use xlink:href="#DejaVuSans-6c" x="242.765625"/>
      <use xlink:href="#DejaVuSans-6c" x="270.548828"/>
     </g>
    </g>
   </g>
   <g id="matplotlib.axis_2">
    <g id="ytick_1">
     <g id="line2d_7">
      <defs>
       <path id="m033fc5707b" d="M 0 0 
L -3.5 0 
" style="stroke: #000000; stroke-width: 0.8"/>
      </defs>
      <g>
       <use xlink:href="#m033fc5707b" x="57.6" y="295.488" style="stroke: #000000; stroke-width: 0.8"/>
      </g>
     </g>
     <g id="text_8">
      <!-- 0.0 -->
      <g transform="translate(34.696875 299.287219) scale(0.1 -0.1)">
       <use xlink:href="#DejaVuSans-30"/>
       <use xlink:href="#DejaVuSans-2e" x="63.623047"/>
       <use xlink:href="#DejaVuSans-30" x="95.410156"/>
      </g>
     </g>
    </g>
    <g id="ytick_2">
     <g id="line2d_8">
      <g>
       <use xlink:href="#m033fc5707b" x="57.6" y="247.104" style="stroke: #000000; stroke-width: 0.8"/>
      </g>
     </g>
     <g id="text_9">
      <!-- 0.2 -->
      <g transform="translate(34.696875 250.903219) scale(0.1 -0.1)">
       <use xlink:href="#DejaVuSans-30"/>
       <use xlink:href="#DejaVuSans-2e" x="63.623047"/>
       <use xlink:href="#DejaVuSans-32" x="95.410156"/>
      </g>
     </g>
    </g>
    <g id="ytick_3">
     <g id="line2d_9">
      <g>
       <use xlink:href="#m033fc5707b" x="57.6" y="198.72" style="stroke: #000000; stroke-width: 0.8"/>
      </g>
     </g>
     <g id="text_10">
      <!-- 0.4 -->
      <g transform="translate(34.696875 202.519219) scale(0.1 -0.1)">
       <use xlink:href="#DejaVuSans-30"/>
       <use xlink:href="#DejaVuSans-2e" x="63.623047"/>
       <use xlink:href="#DejaVuSans-34" x="95.410156"/>
      </g>
     </g>
    </g>
    <g id="ytick_4">
     <g id="line2d_10">
      <g>
       <use xlink:href="#m033fc5707b" x="57.6" y="150.336" style="stroke: #000000; stroke-width: 0.8"/>
      </g>
     </g>
     <g id="text_11">
      <!-- 0.6 -->
      <g transform="translate(34.696875 154.135219) scale(0.1 -0.1)">
       <use xlink:href="#DejaVuSans-30"/>
       <use xlink:href="#DejaVuSans-2e" x="63.623047"/>
       <use xlink:href="#DejaVuSans-36" x="95.410156"/>
      </g>
     </g>
    </g>
    <g id="ytick_5">
     <g id="line2d_11">
      <g>
       <use xlink:href="#m033fc5707b" x="57.6" y="101.952" style="stroke: #000000; stroke-width: 0.8"/>
      </g>
     </g>
     <g id="text_12">
      <!-- 0.8 -->
      <g transform="translate(34.696875 105.751219) scale(0.1 -0.1)">
       <use xlink:href="#DejaVuSans-30"/>
       <use xlink:href="#DejaVuSans-2e" x="63.623047"/>
       <use xlink:href="#DejaVuSans-38" x="95.410156"/>
      </g>
     </g>
    </g>
    <g id="ytick_6">
     <g id="line2d_12">
      <g>
       <use xlink:href="#m033fc5707b" x="57.6" y="53.568" style="stroke: #000000; stroke-width: 0.8"/>
      </g>
     </g>
     <g id="text_13">
      <!-- 1.0 -->
      <g transform="translate(34.696875 57.367219) scale(0.1 -0.1)">
       <use xlink:href="#DejaVuSans-31"/>
       <use xlink:href="#DejaVuSans-2e" x="63.623047"/>
       <use xlink:href="#DejaVuSans-30" x="95.410156"/>
      </g>
     </g>
    </g>
    <g id="text_14">
     <!-- Precision -->
     <g transform="translate(28.617187 196.835031) rotate(-90) scale(0.1 -0.1)">
      <defs>
       <path id="DejaVuSans-50" d="M 1259 4147 
L 1259 2394 
L 2053 2394 
Q 2494 2394 2734 2622 
Q 2975 2850 2975 3272 
Q 2975 3691 2734 3919 
Q 2494 4147 2053 4147 
L 1259 4147 
z
M 628 4666 
L 2053 4666 
Q 2838 4666 3239 4311 
Q 3641 3956 3641 3272 
Q 3641 2581 3239 2228 
Q 2838 1875 2053 1875 
L 1259 1875 
L 1259 0 
L 628 0 
L 628 4666 
z
" transform="scale(0.015625)"/>
       <path id="DejaVuSans-72" d="M 2631 2963 
Q 2534 3019 2420 3045 
Q 2306 3072 2169 3072 
Q 1681 3072 1420 2755 
Q 1159 2438 1159 1844 
L 1159 0 
L 581 0 
L 581 3500 
L 1159 3500 
L 1159 2956 
Q 1341 3275 1631 3429 
Q 1922 3584 2338 3584 
Q 2397 3584 2469 3576 
Q 2541 3569 2628 3553 
L 2631 2963 
z
" transform="scale(0.015625)"/>
       <path id="DejaVuSans-69" d="M 603 3500 
L 1178 3500 
L 1178 0 
L 603 0 
L 603 3500 
z
M 603 4863 
L 1178 4863 
L 1178 4134 
L 603 4134 
L 603 4863 
z
" transform="scale(0.015625)"/>
       <path id="DejaVuSans-73" d="M 2834 3397 
L 2834 2853 
Q 2591 2978 2328 3040 
Q 2066 3103 1784 3103 
Q 1356 3103 1142 2972 
Q 928 2841 928 2578 
Q 928 2378 1081 2264 
Q 1234 2150 1697 2047 
L 1894 2003 
Q 2506 1872 2764 1633 
Q 3022 1394 3022 966 
Q 3022 478 2636 193 
Q 2250 -91 1575 -91 
Q 1294 -91 989 -36 
Q 684 19 347 128 
L 347 722 
Q 666 556 975 473 
Q 1284 391 1588 391 
Q 1994 391 2212 530 
Q 2431 669 2431 922 
Q 2431 1156 2273 1281 
Q 2116 1406 1581 1522 
L 1381 1569 
Q 847 1681 609 1914 
Q 372 2147 372 2553 
Q 372 3047 722 3315 
Q 1072 3584 1716 3584 
Q 2034 3584 2315 3537 
Q 2597 3491 2834 3397 
z
" transform="scale(0.015625)"/>
       <path id="DejaVuSans-6f" d="M 1959 3097 
Q 1497 3097 1228 2736 
Q 959 2375 959 1747 
Q 959 1119 1226 758 
Q 1494 397 1959 397 
Q 2419 397 2687 759 
Q 2956 1122 2956 1747 
Q 2956 2369 2687 2733 
Q 2419 3097 1959 3097 
z
M 1959 3584 
Q 2709 3584 3137 3096 
Q 3566 2609 3566 1747 
Q 3566 888 3137 398 
Q 2709 -91 1959 -91 
Q 1206 -91 779 398 
Q 353 888 353 1747 
Q 353 2609 779 3096 
Q 1206 3584 1959 3584 
z
" transform="scale(0.015625)"/>
       <path id="DejaVuSans-6e" d="M 3513 2113 
L 3513 0 
L 2938 0 
L 2938 2094 
Q 2938 2591 2744 2837 
Q 2550 3084 2163 3084 
Q 1697 3084 1428 2787 
Q 1159 2491 1159 1978 
L 1159 0 
L 581 0 
L 581 3500 
L 1159 3500 
L 1159 2956 
Q 1366 3272 1645 3428 
Q 1925 3584 2291 3584 
Q 2894 3584 3203 3211 
Q 3513 2838 3513 2113 
z
" transform="scale(0.015625)"/>
      </defs>
      <use xlink:href="#DejaVuSans-50"/>
      <use xlink:href="#DejaVuSans-72" x="58.552734"/>
      <use xlink:href="#DejaVuSans-65" x="97.416016"/>
      <use xlink:href="#DejaVuSans-63" x="158.939453"/>
      <use xlink:href="#DejaVuSans-69" x="213.919922"/>
      <use xlink:href="#DejaVuSans-73" x="241.703125"/>
      <use xlink:href="#DejaVuSans-69" x="293.802734"/>
      <use xlink:href="#DejaVuSans-6f" x="321.585938"/>
      <use xlink:href="#DejaVuSans-6e" x="382.767578"/>
     </g>
    </g>
   </g>
   <g id="line2d_13">
    <path d="M 398.487273 166.673455 
L 398.487273 163.913143 
L 397.878165 164.025855 
L 397.878165 163.891436 
L 397.269057 164.004356 
L 397.269057 163.734646 
L 396.659949 163.847754 
L 396.659949 163.441038 
L 396.050841 163.554309 
L 396.050841 163.418155 
L 394.832625 163.645353 
L 394.832625 163.235054 
L 393.614409 163.463052 
L 393.614409 163.325669 
L 393.005301 163.44 
L 393.005301 163.302307 
L 392.396193 163.416852 
L 392.396193 163.278846 
L 391.787085 163.393607 
L 391.787085 163.255288 
L 391.177977 163.370264 
L 391.177977 162.953489 
L 390.568869 163.068632 
L 390.568869 162.929096 
L 389.959761 163.044456 
L 389.959761 162.9046 
L 388.132437 163.252068 
L 388.132437 163.111839 
L 387.523329 163.228127 
L 387.523329 162.664119 
L 386.914221 162.780551 
L 386.914221 162.638769 
L 386.305113 162.755422 
L 386.305113 162.61331 
L 385.696005 162.730186 
L 385.696005 162.014897 
L 385.086897 162.131883 
L 385.086897 161.408694 
L 383.868682 161.64313 
L 383.868682 161.497489 
L 383.259574 161.615059 
L 383.259574 160.734316 
L 381.43225 161.088 
L 381.43225 160.939982 
L 380.214034 161.177007 
L 380.214034 161.028597 
L 379.604926 161.147469 
L 379.604926 160.998698 
L 378.995818 161.1178 
L 378.995818 160.968666 
L 378.38671 161.088 
L 378.38671 160.938501 
L 377.777602 161.058067 
L 377.777602 160.758 
L 377.168494 160.877765 
L 377.168494 160.42504 
L 376.559386 160.54497 
L 376.559386 160.393348 
L 375.950278 160.513512 
L 375.950278 159.596358 
L 373.513846 160.078853 
L 373.513846 159.45984 
L 372.29563 159.702433 
L 372.29563 159.234207 
L 371.686522 159.355802 
L 371.686522 159.198968 
L 370.468306 159.442919 
L 370.468306 159.285642 
L 369.859198 159.408 
L 369.859198 158.77507 
L 369.25009 158.897546 
L 369.25009 158.578782 
L 368.031874 158.824421 
L 368.031874 158.664393 
L 367.422767 158.787601 
L 367.422767 158.143548 
L 366.813659 158.266868 
L 366.813659 158.10486 
L 366.204551 158.228426 
L 366.204551 158.065988 
L 364.377227 158.438309 
L 364.377227 158.112 
L 363.768119 158.236605 
L 363.768119 158.072821 
L 362.549903 158.322833 
L 362.549903 157.82884 
L 361.940795 157.954154 
L 361.940795 156.955119 
L 360.722579 157.206058 
L 360.722579 157.038036 
L 360.113471 157.163912 
L 360.113471 156.826537 
L 358.895255 157.079002 
L 358.895255 156.909591 
L 358.286147 157.036235 
L 358.286147 156.696059 
L 356.458823 157.077544 
L 356.458823 156.906667 
L 355.240607 157.162455 
L 355.240607 156.474269 
L 354.022391 156.730893 
L 354.022391 155.684985 
L 353.413283 155.813434 
L 353.413283 155.461165 
L 352.804175 155.589818 
L 352.804175 155.412956 
L 352.195067 155.541873 
L 352.195067 155.364502 
L 351.585959 155.493685 
L 351.585959 155.315802 
L 350.976851 155.445252 
L 350.976851 154.90869 
L 347.322204 155.691243 
L 347.322204 155.149395 
L 344.276664 155.809873 
L 344.276664 155.26283 
L 343.667556 155.395765 
L 343.667556 155.212398 
L 342.44934 155.479181 
L 342.44934 155.110737 
L 341.840232 155.244522 
L 341.840232 154.688 
L 338.794692 155.361236 
L 338.794692 154.79923 
L 337.576476 155.070627 
L 337.576476 154.882148 
L 336.967368 155.018323 
L 336.967368 154.259027 
L 333.921828 154.944 
L 333.921828 154.560524 
L 332.703612 154.836837 
L 332.703612 154.644164 
L 332.094505 154.782815 
L 332.094505 154.39573 
L 330.267181 154.813525 
L 330.267181 154.618954 
L 329.658073 154.758914 
L 329.658073 154.368 
L 328.439857 154.64878 
L 328.439857 154.452351 
L 327.221641 154.734545 
L 327.221641 154.537412 
L 325.394317 154.963443 
L 325.394317 154.765521 
L 324.176101 155.05139 
L 324.176101 154.852752 
L 323.566993 154.996215 
L 323.566993 154.796936 
L 322.957885 154.940727 
L 322.957885 154.540308 
L 319.912345 155.264643 
L 319.912345 154.65849 
L 318.694129 154.950659 
L 318.694129 154.543304 
L 317.475913 154.836837 
L 317.475913 154.632105 
L 316.866805 154.779429 
L 316.866805 154.574015 
L 316.257697 154.721684 
L 316.257697 154.30888 
L 315.039481 154.605176 
L 315.039481 153.98088 
L 313.212158 154.427822 
L 313.212158 154.218223 
L 311.384834 154.668896 
L 311.384834 154.035526 
L 308.948402 154.641665 
L 308.948402 154.428906 
L 307.730186 154.734545 
L 307.730186 154.520959 
L 306.51197 154.828274 
L 306.51197 154.613854 
L 305.902862 154.768122 
L 305.902862 154.552954 
L 305.293754 154.707602 
L 305.293754 154.491681 
L 304.075538 154.802215 
L 304.075538 154.585442 
L 303.46643 154.741333 
L 303.46643 153.64688 
L 293.111595 156.364677 
L 293.111595 155.244522 
L 292.502487 155.408516 
L 292.502487 155.182216 
L 285.802299 157.020632 
L 285.802299 156.792514 
L 284.584083 157.133752 
L 284.584083 156.904689 
L 283.974975 157.07606 
L 283.974975 156.84614 
L 282.147651 157.363392 
L 282.147651 156.900663 
L 281.538543 157.07404 
L 281.538543 156.841412 
L 280.929435 157.015273 
L 280.929435 156.312365 
L 280.320327 156.486508 
L 280.320327 156.250513 
L 278.493004 156.776191 
L 278.493004 156.539077 
L 277.883896 156.715397 
L 277.883896 156.238515 
L 276.056572 156.770487 
L 276.056572 156.530491 
L 275.447464 156.708936 
L 275.447464 156.468 
L 274.229248 156.826537 
L 274.229248 156.341706 
L 271.792816 157.065465 
L 271.792816 156.821333 
L 270.5746 157.186832 
L 270.5746 156.941617 
L 266.919952 158.053161 
L 266.919952 157.060852 
L 266.310844 157.248 
L 266.310844 156.746221 
L 265.092628 157.122098 
L 265.092628 156.869606 
L 263.874412 157.248 
L 263.874412 155.970366 
L 260.219765 157.118804 
L 260.219765 156.599595 
L 259.610657 156.793263 
L 259.610657 156.269887 
L 258.392441 156.658909 
L 258.392441 156.395476 
L 255.956009 157.18192 
L 255.956009 156.650994 
L 255.346901 156.849231 
L 255.346901 156.582104 
L 254.737793 156.780973 
L 254.737793 156.512681 
L 251.083145 157.721425 
L 251.083145 157.180102 
L 250.474037 157.384063 
L 250.474037 157.111669 
L 249.864929 157.3163 
L 249.864929 157.042693 
L 248.646713 157.454123 
L 248.646713 156.90309 
L 248.037605 157.10976 
L 248.037605 156.554024 
L 247.428497 156.761239 
L 247.428497 156.481548 
L 246.819389 156.689455 
L 246.819389 156.408486 
L 243.77385 157.460025 
L 243.77385 157.17718 
L 242.555634 157.603556 
L 242.555634 157.319258 
L 241.946526 157.53362 
L 241.946526 157.248 
L 241.337418 157.463104 
L 241.337418 157.17615 
L 240.72831 157.392 
L 240.72831 157.103699 
L 238.900986 157.756235 
L 238.900986 157.175089 
L 238.291878 157.394131 
L 238.291878 156.216358 
L 237.68277 156.435692 
L 237.68277 156.137936 
L 236.464554 156.579097 
L 236.464554 155.979058 
L 234.63723 156.646957 
L 234.63723 156.344471 
L 234.028122 156.568873 
L 234.028122 156.264893 
L 233.419014 156.490105 
L 233.419014 155.87778 
L 229.764366 157.248 
L 229.764366 156.316045 
L 229.155258 156.547459 
L 229.155258 156.233824 
L 228.54615 156.4661 
L 228.54615 156.150857 
L 227.937042 156.384 
L 227.937042 155.107817 
L 226.109719 155.811326 
L 226.109719 155.488 
L 224.282395 156.200727 
L 224.282395 155.87529 
L 223.673287 156.114885 
L 223.673287 155.128755 
L 221.845963 155.852466 
L 221.845963 155.52 
L 221.236855 155.763322 
L 221.236855 155.429053 
L 220.018639 155.918769 
L 220.018639 155.582458 
L 218.800423 156.076475 
L 218.800423 155.738097 
L 215.754883 156.993258 
L 215.754883 156.652138 
L 214.536667 157.162455 
L 214.536667 156.819216 
L 213.927559 157.07606 
L 213.927559 156.035368 
L 212.709343 156.551577 
L 212.709343 155.848101 
L 212.100235 156.107695 
L 212.100235 155.753038 
L 209.663804 156.803784 
L 209.663804 156.08707 
L 207.83648 156.888 
L 207.83648 155.429053 
L 206.618264 155.968 
L 206.618264 155.59792 
L 206.009156 155.869277 
L 206.009156 155.49696 
L 205.400048 155.769497 
L 205.400048 155.394917 
L 204.79094 155.668645 
L 204.79094 155.291774 
L 202.354508 156.40048 
L 202.354508 156.020459 
L 201.7454 156.301151 
L 201.7454 155.918769 
L 201.136292 156.200727 
L 201.136292 155.429053 
L 199.308968 156.282637 
L 199.308968 155.500584 
L 198.69986 155.787718 
L 198.69986 154.195692 
L 196.263428 155.355666 
L 196.263428 154.950659 
L 194.436104 155.837388 
L 194.436104 155.429053 
L 193.826996 155.727765 
L 193.826996 154.903221 
L 191.390565 156.113194 
L 191.390565 155.695904 
L 190.781457 156.002595 
L 190.781457 154.734545 
L 188.345025 155.975853 
L 188.345025 155.546585 
L 184.690377 157.464677 
L 184.690377 156.593868 
L 184.081269 156.919899 
L 184.081269 156.48 
L 182.863053 157.137585 
L 182.863053 155.79871 
L 181.035729 156.797707 
L 181.035729 154.50151 
L 178.599297 155.856322 
L 178.599297 155.386182 
L 177.381081 156.076475 
L 177.381081 155.12486 
L 173.117326 157.610517 
L 173.117326 157.126737 
L 172.508218 157.49138 
L 172.508218 156.512681 
L 171.89911 156.879032 
L 171.89911 156.384 
L 171.290002 156.752516 
L 171.290002 155.244522 
L 170.071786 155.986686 
L 170.071786 155.475692 
L 168.85357 156.227779 
L 168.85357 155.712 
L 168.244462 156.091717 
L 168.244462 155.571582 
L 163.980706 158.30731 
L 163.980706 157.248 
L 161.544274 158.874353 
L 161.544274 156.697243 
L 160.935166 157.10976 
L 160.935166 156.554024 
L 158.498734 158.235429 
L 158.498734 157.672918 
L 156.671411 158.96883 
L 156.671411 157.248 
L 153.016763 159.929379 
L 153.016763 158.153502 
L 152.407655 158.612211 
L 152.407655 157.40092 
L 147.534791 161.211303 
L 147.534791 160.592516 
L 146.925683 161.088 
L 146.925683 159.831925 
L 146.316575 160.330817 
L 146.316575 159.693283 
L 145.098359 160.704 
L 145.098359 160.0591 
L 143.880143 161.088 
L 143.880143 160.435573 
L 139.616388 164.194734 
L 139.00728 164.753455 
L 139.00728 164.089827 
L 136.570848 166.380435 
L 136.570848 165.028524 
L 135.352632 166.208 
L 135.352632 165.52034 
L 134.743524 166.119016 
L 134.743524 165.423484 
L 134.134416 166.028108 
L 134.134416 165.324522 
L 132.9162 166.552615 
L 132.9162 165.840265 
L 132.307092 166.464 
L 132.307092 165.014292 
L 131.697984 165.643932 
L 131.697984 164.906182 
L 129.261552 167.495442 
L 129.261552 165.989647 
L 127.434228 168.009198 
L 127.434228 167.241253 
L 126.82512 167.930182 
L 126.82512 166.365055 
L 126.216012 167.061333 
L 126.216012 164.638189 
L 123.77958 167.504516 
L 123.77958 164.978526 
L 123.170472 165.716344 
L 123.170472 164.8512 
L 122.561364 165.598067 
L 122.561364 163.830857 
L 121.343149 165.351724 
L 121.343149 164.448 
L 120.124933 166.00969 
L 120.124933 165.091404 
L 117.688501 168.347562 
L 117.688501 166.464 
L 117.079393 167.306507 
L 117.079393 166.342737 
L 116.470285 167.197091 
L 116.470285 166.217771 
L 115.861177 167.084308 
L 115.861177 166.08893 
L 114.642961 167.860913 
L 114.642961 164.773161 
L 114.033853 165.677268 
L 114.033853 161.313882 
L 112.815637 163.155692 
L 112.815637 162.014897 
L 109.770097 166.899892 
L 107.942773 170.048 
L 107.942773 167.681208 
L 107.333665 168.768 
L 107.333665 167.549538 
L 106.724557 168.656155 
L 106.724557 162.185143 
L 105.506341 164.448 
L 105.506341 161.659915 
L 104.897233 162.822194 
L 104.897233 161.380174 
L 103.06991 165.014292 
L 103.06991 163.531636 
L 102.460802 164.795586 
L 102.460802 160.128 
L 100.02437 165.456 
L 100.02437 154.912865 
L 98.806154 157.728 
L 98.806154 149.624471 
L 96.97883 154.057846 
L 96.97883 147.214452 
L 96.369722 148.749639 
L 96.369722 146.304 
L 94.542398 151.184842 
L 94.542398 145.937455 
L 93.93329 147.648 
L 93.93329 141.961846 
L 92.105966 147.373714 
L 91.496858 149.328 
L 91.496858 146.218213 
L 90.88775 148.232348 
L 90.88775 141.538909 
L 89.669534 145.728 
L 89.669534 134.208 
L 87.84221 140.928 
L 87.233103 143.424 
L 87.233103 134.208 
L 86.014887 139.410581 
L 84.796671 145.330759 
L 83.578455 152.128 
L 82.360239 160.0128 
L 82.360239 154.368 
L 81.751131 158.750609 
L 81.751131 145.728 
L 80.532915 155.429053 
L 79.314699 167.412706 
L 78.096483 182.592 
L 77.487375 191.808 
L 77.487375 183.832615 
L 76.269159 207.517091 
L 75.660051 222.912 
L 75.660051 214.848 
L 75.050943 235.008 
L 75.050943 226.368 
L 74.441835 255.168 
L 73.832727 295.488 
L 73.832727 295.488 
L 73.832727 53.568 
L 73.832727 53.568 
" clip-path="url(#p87390d9905)" style="fill: none; stroke: #0000ff; stroke-width: 2; stroke-linecap: square"/>
   </g>
   <g id="patch_3">
    <path d="M 57.6 307.584 
L 57.6 41.472 
" style="fill: none; stroke: #000000; stroke-width: 0.8; stroke-linejoin: miter; stroke-linecap: square"/>
   </g>
   <g id="patch_4">
    <path d="M 414.72 307.584 
L 414.72 41.472 
" style="fill: none; stroke: #000000; stroke-width: 0.8; stroke-linejoin: miter; stroke-linecap: square"/>
   </g>
   <g id="patch_5">
    <path d="M 57.6 307.584 
L 414.72 307.584 
" style="fill: none; stroke: #000000; stroke-width: 0.8; stroke-linejoin: miter; stroke-linecap: square"/>
   </g>
   <g id="patch_6">
    <path d="M 57.6 41.472 
L 414.72 41.472 
" style="fill: none; stroke: #000000; stroke-width: 0.8; stroke-linejoin: miter; stroke-linecap: square"/>
   </g>
   <g id="text_15">
    <!-- Precision-Recall curve -->
    <g transform="translate(170.608125 35.472) scale(0.12 -0.12)">
     <defs>
      <path id="DejaVuSans-2d" d="M 313 2009 
L 1997 2009 
L 1997 1497 
L 313 1497 
L 313 2009 
z
" transform="scale(0.015625)"/>
      <path id="DejaVuSans-20" transform="scale(0.015625)"/>
      <path id="DejaVuSans-75" d="M 544 1381 
L 544 3500 
L 1119 3500 
L 1119 1403 
Q 1119 906 1312 657 
Q 1506 409 1894 409 
Q 2359 409 2629 706 
Q 2900 1003 2900 1516 
L 2900 3500 
L 3475 3500 
L 3475 0 
L 2900 0 
L 2900 538 
Q 2691 219 2414 64 
Q 2138 -91 1772 -91 
Q 1169 -91 856 284 
Q 544 659 544 1381 
z
M 1991 3584 
L 1991 3584 
z
" transform="scale(0.015625)"/>
      <path id="DejaVuSans-76" d="M 191 3500 
L 800 3500 
L 1894 563 
L 2988 3500 
L 3597 3500 
L 2284 0 
L 1503 0 
L 191 3500 
z
" transform="scale(0.015625)"/>
     </defs>
     <use xlink:href="#DejaVuSans-50"/>
     <use xlink:href="#DejaVuSans-72" x="58.552734"/>
     <use xlink:href="#DejaVuSans-65" x="97.416016"/>
     <use xlink:href="#DejaVuSans-63" x="158.939453"/>
     <use xlink:href="#DejaVuSans-69" x="213.919922"/>
     <use xlink:href="#DejaVuSans-73" x="241.703125"/>
     <use xlink:href="#DejaVuSans-69" x="293.802734"/>
     <use xlink:href="#DejaVuSans-6f" x="321.585938"/>
     <use xlink:href="#DejaVuSans-6e" x="382.767578"/>
     <use xlink:href="#DejaVuSans-2d" x="446.146484"/>
     <use xlink:href="#DejaVuSans-52" x="482.230469"/>
     <use xlink:href="#DejaVuSans-65" x="547.212891"/>
     <use xlink:href="#DejaVuSans-63" x="608.736328"/>
     <use xlink:href="#DejaVuSans-61" x="663.716797"/>
     <use xlink:href="#DejaVuSans-6c" x="724.996094"/>
     <use xlink:href="#DejaVuSans-6c" x="752.779297"/>
     <use xlink:href="#DejaVuSans-20" x="780.5625"/>
     <use xlink:href="#DejaVuSans-63" x="812.349609"/>
     <use xlink:href="#DejaVuSans-75" x="867.330078"/>
     <use xlink:href="#DejaVuSans-72" x="930.708984"/>
     <use xlink:href="#DejaVuSans-76" x="971.822266"/>
     <use xlink:href="#DejaVuSans-65" x="1031.001953"/>
    </g>
   </g>
  </g>
 </g>
 <defs>
  <clipPath id="p87390d9905">
   <rect x="57.6" y="41.472" width="357.12" height="266.112"/>
  </clipPath>
 </defs>
</svg>
